<svg width="640" height="360" viewBox="0 0 640 360" xmlns="http://www.w3.org/2000/svg" role="img" aria-label="Abstract tech illustration">
  <defs>
    <linearGradient id="g" x1="0" y1="0" x2="1" y2="1">
      <stop offset="0" stop-color="#f3f4f6"/>
      <stop offset="1" stop-color="#ffffff"/>
    </linearGradient>
  </defs>
  <rect width="640" height="360" rx="24" fill="url(#g)" stroke="#e5e7eb"/>
  <g fill="none" stroke="#e50914" stroke-width="2" opacity="0.6">
    <path d="M40 300 C120 200, 220 220, 320 300 S520 380, 600 300"/>
    <path d="M40 260 C120 160, 220 180, 320 260 S520 340, 600 260" opacity="0.5"/>
    <path d="M40 220 C120 120, 220 140, 320 220 S520 300, 600 220" opacity="0.3"/>
  </g>
  <g fill="#e50914" opacity="0.8">
    <circle cx="120" cy="120" r="6"/>
    <circle cx="200" cy="80" r="4"/>
    <circle cx="280" cy="140" r="5"/>
    <circle cx="360" cy="100" r="6"/>
    <circle cx="440" cy="140" r="5"/>
    <circle cx="520" cy="90" r="4"/>
  </g>
</svg>